<?xml version="1.0" standalone="no"?>
<!DOCTYPE svg PUBLIC "-//W3C//DTD SVG 20010904//EN"
 "http://www.w3.org/TR/2001/REC-SVG-20010904/DTD/svg10.dtd">
<svg version="1.0" xmlns="http://www.w3.org/2000/svg"
 width="300.000000pt" height="300.000000pt" viewBox="0 0 300.000000 300.000000"
 preserveAspectRatio="xMidYMid meet">
<metadata>
Created by potrace 1.11, written by Peter Selinger 2001-2013
</metadata>
<g transform="translate(0.000000,300.000000) scale(0.100000,-0.100000)"
fill="#000000" stroke="none">
<path d="M1340 2973 c-149 -16 -331 -69 -475 -137 -79 -38 -231 -128 -245
-145 -3 -4 -25 -22 -50 -41 -71 -54 -191 -178 -252 -260 -150 -201 -239 -415
-282 -675 -15 -88 -16 -374 -2 -435 3 -14 9 -41 12 -60 30 -174 125 -398 235
-559 43 -63 179 -222 215 -251 259 -211 438 -303 699 -358 116 -24 142 -26
310 -27 196 0 291 15 460 70 131 42 336 149 425 221 91 75 172 149 210 194 25
29 50 58 56 64 52 54 165 247 214 365 79 192 110 370 106 601 -6 298 -87 545
-263 808 -107 158 -308 342 -481 439 -137 76 -342 152 -457 168 -23 3 -52 8
-65 11 -30 7 -321 13 -370 7z m442 -122 c159 -36 276 -80 401 -153 325 -188
560 -494 652 -849 35 -134 43 -213 40 -384 -5 -314 -100 -572 -307 -839 -13
-16 -50 -57 -83 -91 -217 -219 -478 -353 -780 -400 -112 -17 -363 -12 -460 8
-110 24 -115 25 -184 48 -435 145 -781 515 -896 960 -34 129 -40 189 -39 374
1 135 5 178 27 272 63 273 187 496 382 687 207 203 470 336 760 382 121 19
367 11 487 -15z"/>
<path d="M1178 2436 c-25 -18 -43 -74 -72 -223 -26 -135 -63 -354 -82 -488 -3
-27 -8 -59 -10 -70 -2 -11 -7 -56 -10 -100 -6 -91 5 -117 49 -117 59 0 77 39
103 232 2 19 9 60 14 90 8 52 12 78 25 190 3 25 7 54 9 65 2 11 9 55 16 98 7
43 16 74 20 70 4 -4 24 -57 45 -118 20 -60 55 -151 75 -202 l38 -93 -80 -188
c-44 -103 -81 -191 -82 -197 -2 -5 -10 -27 -19 -49 -9 -21 -17 -41 -17 -45 0
-5 -78 -204 -123 -313 -15 -36 -27 -36 -28 0 0 15 -3 38 -5 52 -7 36 -54 329
-59 368 -12 81 -15 104 -20 135 -3 17 -7 46 -9 62 -23 179 -93 534 -112 562
-40 62 -142 63 -175 1 -15 -29 -6 -161 25 -373 15 -93 28 -181 31 -195 4 -22
13 -77 20 -125 3 -23 53 -309 60 -345 4 -22 15 -78 31 -167 9 -49 63 -287 74
-324 13 -46 65 -99 99 -100 110 -5 132 28 304 461 69 173 138 342 152 375 l27
60 14 -27 c15 -29 154 -374 154 -383 0 -13 115 -295 143 -350 51 -103 84 -134
144 -135 73 0 112 39 133 134 6 28 20 92 31 141 26 119 89 450 109 574 6 36
12 67 14 70 2 3 7 28 10 55 4 28 13 79 21 115 7 36 16 89 19 116 4 28 11 75
16 105 16 90 20 130 27 226 5 86 4 92 -18 112 -12 12 -30 22 -38 23 -9 0 -23
2 -32 4 -26 5 -74 -23 -92 -54 -21 -36 -56 -195 -102 -471 -20 -118 -38 -226
-41 -240 -2 -14 -7 -45 -10 -70 -5 -47 -11 -88 -19 -130 -5 -30 -13 -87 -20
-143 -3 -23 -7 -51 -10 -62 -2 -11 -4 -35 -4 -53 -1 -47 -13 -34 -45 50 -74
193 -103 264 -161 403 -35 83 -81 188 -103 234 l-39 84 52 126 c28 69 64 165
80 214 31 89 44 108 46 60 0 -16 2 -37 4 -48 2 -11 7 -42 10 -70 3 -27 8 -66
11 -86 2 -20 7 -54 10 -75 11 -93 45 -303 56 -351 13 -59 35 -85 73 -85 50 0
58 18 51 112 -3 47 -7 94 -10 105 -2 11 -7 45 -11 75 -10 78 -13 102 -35 225
-10 61 -22 126 -25 145 -21 124 -58 288 -71 311 -27 54 -95 47 -133 -14 -11
-19 -45 -101 -75 -183 -55 -152 -113 -301 -123 -318 -7 -10 -28 40 -118 275
-35 92 -73 185 -84 207 -33 66 -83 89 -123 58z"/>
</g>
</svg>
