<svg viewBox="0 0 44 71" fill="none" xmlns="http://www.w3.org/2000/svg">
<rect  fill="#E5E5E5"/>
<rect  transform="translate(-16 -9)" fill="#C7CDD2"/>
<path d="M18.4888 23.7856C17.5482 21.7202 16.7098 19.7265 15.9736 17.8043C15.2579 15.8617 14.6445 14.1338 14.1332 12.6205C13.6629 15.1562 13.2642 17.7123 12.937 20.2888C12.6303 22.8654 12.2315 25.3294 11.7407 27.6811C11.618 28.2127 11.3931 28.5706 11.0659 28.7546C10.7387 28.9182 10.4627 29 10.2378 29C9.86968 29 9.57317 28.8875 9.34823 28.6626C9.14375 28.4377 9.0415 28.1514 9.0415 27.8037C9.0415 27.3334 9.09262 26.6177 9.19487 25.6566C9.31756 24.6751 9.4607 23.5709 9.62429 22.3439C9.80833 21.117 10.0128 19.8287 10.2378 18.4791C10.4627 17.1295 10.6876 15.831 10.9126 14.5836C11.1579 13.3158 11.3829 12.1707 11.5874 11.1482C11.8123 10.1258 12.0066 9.33852 12.1702 8.7864C12.436 7.84576 12.9779 7.37544 13.7958 7.37544C14.2866 7.37544 14.7058 7.62082 15.0534 8.11159C15.4011 8.58191 15.7691 9.31807 16.1577 10.3201C16.5666 11.3016 17.0472 12.549 17.5993 14.0622C18.1719 15.5754 18.908 17.3544 19.8078 19.3993C20.6871 17.3544 21.3926 15.5856 21.9242 14.0929C22.4763 12.5796 22.9364 11.3323 23.3045 10.3507C23.693 9.34874 24.0611 8.61259 24.4087 8.14227C24.7564 7.6515 25.1858 7.40611 25.697 7.40611C26.1673 7.40611 26.5252 7.5288 26.7706 7.77419C27.016 7.99912 27.2 8.34675 27.3227 8.81708C27.4658 9.38964 27.6396 10.1871 27.8441 11.2096C28.0486 12.2116 28.2633 13.3363 28.4883 14.5836C28.7337 15.8106 28.9688 17.0988 29.1938 18.4484C29.4187 19.7981 29.6232 21.0863 29.8072 22.3133C29.9913 23.5402 30.1344 24.6546 30.2366 25.6566C30.3593 26.6382 30.4207 27.3948 30.4207 27.9264C30.4207 28.2536 30.3082 28.5195 30.0833 28.7239C29.8583 28.908 29.5721 29 29.2244 29C28.9995 29 28.7234 28.9182 28.3963 28.7546C28.0691 28.5706 27.8441 28.2127 27.7214 27.6811C27.4761 26.5155 27.2511 25.309 27.0466 24.0616C26.8626 22.8143 26.6786 21.5567 26.4945 20.2888C26.3309 19.0006 26.1673 17.7225 26.0037 16.4547C25.8402 15.1664 25.6663 13.8884 25.4823 12.6205C25.2165 13.4385 24.9097 14.3382 24.5621 15.3198C24.2145 16.3013 23.8464 17.2931 23.4579 18.2951C23.0694 19.2766 22.6706 20.2479 22.2616 21.209C21.8526 22.1701 21.4539 23.0392 21.0654 23.8162C20.9222 24.0821 20.728 24.2866 20.4826 24.4297C20.2576 24.5524 20.0225 24.6137 19.7771 24.6137C19.5113 24.6137 19.2557 24.5524 19.0103 24.4297C18.7853 24.2866 18.6115 24.0718 18.4888 23.7856Z" fill="#365593"/>
<path d="M16.9824 24.3287C17.1858 23.8542 17.4909 23.4643 17.8976 23.1593C18.3383 22.8542 18.7959 22.7017 19.2705 22.7017C19.7111 22.7017 20.1348 22.8542 20.5416 23.1593C20.9484 23.4304 21.2704 23.8033 21.5077 24.2779C22.7958 26.9218 24.0669 29.7861 25.3211 32.8708C26.5753 35.9215 27.7108 38.8197 28.7277 41.5654C29.304 37.3621 29.9311 33.125 30.609 28.854C31.287 24.5829 32.0497 20.4983 32.8971 16.6002C32.9988 16.1595 33.1513 15.8036 33.3547 15.5324C33.5581 15.2274 33.7784 15.007 34.0157 14.8714C34.253 14.702 34.4902 14.5833 34.7275 14.5155C34.9987 14.4477 35.219 14.4138 35.3885 14.4138C35.9648 14.4138 36.4393 14.5833 36.8122 14.9223C37.1851 15.2274 37.3715 15.6511 37.3715 16.1934C37.3715 16.8036 37.2698 17.8883 37.0664 19.4475C36.863 20.9729 36.5919 22.7694 36.2529 24.8372C35.9139 26.871 35.5241 29.0404 35.0834 31.3454C34.6767 33.6504 34.2699 35.8707 33.8631 38.0062C33.4564 40.1417 33.0666 42.0908 32.6937 43.8534C32.3208 45.6161 32.0158 46.955 31.7785 47.8702C31.5751 48.6498 31.27 49.243 30.8633 49.6498C30.4565 50.0227 29.8633 50.2091 29.0837 50.2091C28.2701 50.2091 27.5752 49.8532 26.999 49.1413C26.4566 48.3956 25.8465 47.2431 25.1686 45.6838C24.5245 44.1246 23.7449 42.1416 22.8297 39.7349C21.9144 37.2943 20.728 34.3792 19.2705 30.9895C17.779 34.3792 16.5587 37.2943 15.6096 39.7349C14.6944 42.1755 13.8978 44.1754 13.2198 45.7347C12.5758 47.294 11.9657 48.4465 11.3894 49.1922C10.8132 49.904 10.1352 50.2599 9.35558 50.2599C7.9997 50.2599 7.10143 49.4803 6.66077 47.9211C6.38959 47.0058 6.06757 45.6838 5.6947 43.9551C5.32184 42.1925 4.93202 40.2434 4.52526 38.1079C4.15239 35.9723 3.76257 33.769 3.35581 31.4979C2.94904 29.1929 2.59312 27.0235 2.28805 24.9897C1.98298 22.9559 1.72875 21.1763 1.52537 19.6509C1.35588 18.0917 1.27114 17.007 1.27114 16.3968C1.27114 15.8206 1.45757 15.346 1.83044 14.9731C2.20331 14.6003 2.72871 14.4138 3.40665 14.4138C3.88121 14.4138 4.33882 14.5664 4.77948 14.8714C5.22014 15.1426 5.54217 15.7189 5.74555 16.6002C6.55908 20.4983 7.27092 24.5829 7.88106 28.854C8.52511 33.125 9.20305 37.3621 9.91488 41.5654C10.9657 39.0909 12.0165 36.4639 13.0673 33.6843C14.1181 30.9047 15.4232 27.7862 16.9824 24.3287Z" fill="#365593"/>
</svg>
