<svg width="60" height="60" viewBox="0 0 60 60" fill="none" xmlns="http://www.w3.org/2000/svg">
<path d="M28.3674 26.5233C27.4947 24.5871 26.717 22.7179 26.034 20.9159C25.3701 19.0947 24.801 17.4747 24.3267 16.0561C23.8904 18.4333 23.5205 20.8296 23.217 23.2451C22.9324 25.6606 22.5625 27.9707 22.1072 30.1753C21.9934 30.6738 21.7847 31.0093 21.4812 31.1818C21.1777 31.3352 20.9216 31.4119 20.7129 31.4119C20.3714 31.4119 20.0964 31.3064 19.8877 31.0955C19.698 30.8847 19.6031 30.6163 19.6031 30.2904C19.6031 29.8494 19.6506 29.1785 19.7454 28.2774C19.8592 27.3572 19.992 26.322 20.1438 25.1718C20.3145 24.0215 20.5042 22.8138 20.7129 21.5485C20.9216 20.2833 21.1302 19.0659 21.3389 17.8965C21.5666 16.7079 21.7752 15.6344 21.9649 14.6758C22.1736 13.7173 22.3538 12.9792 22.5056 12.4616C22.7522 11.5798 23.2549 11.1388 24.0137 11.1388C24.469 11.1388 24.8579 11.3689 25.1804 11.829C25.5029 12.2699 25.8443 12.96 26.2048 13.8994C26.5842 14.8196 27.03 15.989 27.5422 17.4076C28.0733 18.8263 28.7563 20.4941 29.5909 22.4112C30.4067 20.4941 31.0611 18.8359 31.5544 17.4364C32.0666 16.0178 32.4934 14.8484 32.8348 13.9282C33.1953 12.9888 33.5367 12.2987 33.8592 11.8577C34.1817 11.3976 34.5801 11.1676 35.0544 11.1676C35.4907 11.1676 35.8227 11.2826 36.0503 11.5127C36.2779 11.7235 36.4487 12.0494 36.5625 12.4904C36.6953 13.0271 36.8565 13.7748 37.0462 14.7333C37.2359 15.6727 37.4352 16.7271 37.6439 17.8965C37.8715 19.0467 38.0896 20.2545 38.2983 21.5198C38.5069 22.785 38.6966 23.9928 38.8674 25.143C39.0381 26.2933 39.1709 27.3381 39.2657 28.2774C39.3796 29.1976 39.4365 29.907 39.4365 30.4054C39.4365 30.7121 39.3321 30.9613 39.1235 31.153C38.9148 31.3256 38.6492 31.4119 38.3267 31.4119C38.118 31.4119 37.8619 31.3352 37.5584 31.1818C37.2549 31.0093 37.0462 30.6738 36.9324 30.1753C36.7048 29.0826 36.4961 27.9515 36.3064 26.7821C36.1357 25.6127 35.9649 24.4337 35.7942 23.2451C35.6424 22.0374 35.4907 20.8392 35.3389 19.6506C35.1871 18.4429 35.0259 17.2447 34.8552 16.0561C34.6086 16.8229 34.324 17.6665 34.0015 18.5866C33.679 19.5068 33.3376 20.4366 32.9771 21.376C32.6167 22.2962 32.2468 23.2068 31.8674 24.1078C31.488 25.0088 31.118 25.8236 30.7576 26.5521C30.6248 26.8013 30.4446 26.993 30.217 27.1272C30.0083 27.2422 29.7901 27.2997 29.5625 27.2997C29.3159 27.2997 29.0788 27.2422 28.8511 27.1272C28.6424 26.993 28.4812 26.7917 28.3674 26.5233Z" fill="#181818"/>
<path d="M27.7449 25.1674C27.9335 24.7225 28.2165 24.357 28.5939 24.071C29.0027 23.785 29.4272 23.642 29.8675 23.642C30.2763 23.642 30.6693 23.785 31.0467 24.071C31.424 24.3253 31.7228 24.6748 31.9429 25.1197C33.1379 27.5984 34.3171 30.2837 35.4806 33.1756C36.6441 36.0356 37.6975 38.7527 38.6409 41.3268C39.1755 37.3862 39.7573 33.4139 40.3862 29.4098C41.0151 25.4057 41.7226 21.5764 42.5088 17.9219C42.6031 17.5088 42.7446 17.1751 42.9333 16.9209C43.122 16.6349 43.3264 16.4283 43.5465 16.3012C43.7666 16.1423 43.9868 16.0311 44.2069 15.9675C44.4584 15.904 44.6628 15.8722 44.8201 15.8722C45.3547 15.8722 45.7949 16.0311 46.1408 16.3489C46.4867 16.6349 46.6597 17.0321 46.6597 17.5406C46.6597 18.1126 46.5653 19.1295 46.3767 20.5913C46.188 22.0213 45.9364 23.7056 45.6219 25.6441C45.3075 27.5508 44.9459 29.5846 44.5371 31.7455C44.1597 33.9065 43.7824 35.988 43.405 37.99C43.0276 39.9921 42.666 41.8193 42.3201 43.4718C41.9742 45.1243 41.6912 46.3795 41.4711 47.2376C41.2824 47.9685 40.9994 48.5246 40.622 48.9059C40.2447 49.2555 39.6944 49.4303 38.9711 49.4303C38.2164 49.4303 37.5718 49.0966 37.0372 48.4292C36.534 47.7301 35.968 46.6496 35.3391 45.1878C34.7416 43.726 34.0183 41.867 33.1693 39.6107C32.3203 37.3227 31.2196 34.5897 29.8675 31.4119C28.4838 34.5897 27.3518 37.3227 26.4713 39.6107C25.6222 41.8988 24.8833 43.7737 24.2543 45.2355C23.6569 46.6973 23.0908 47.7778 22.5562 48.4769C22.0217 49.1443 21.3927 49.4779 20.6695 49.4779C19.4116 49.4779 18.5783 48.747 18.1695 47.2852C17.918 46.4272 17.6192 45.1878 17.2733 43.5671C16.9274 41.9147 16.5658 40.0874 16.1884 38.0853C15.8425 36.0833 15.4809 34.0177 15.1035 31.8885C14.7262 29.7276 14.396 27.6938 14.113 25.7871C13.83 23.8804 13.5941 22.212 13.4054 20.782C13.2482 19.3202 13.1696 18.3032 13.1696 17.7312C13.1696 17.191 13.3425 16.7461 13.6885 16.3965C14.0344 16.047 14.5218 15.8722 15.1507 15.8722C15.5909 15.8722 16.0155 16.0152 16.4243 16.3012C16.8331 16.5554 17.1318 17.0957 17.3205 17.9219C18.0752 21.5764 18.7356 25.4057 19.3016 29.4098C19.8991 33.4139 20.528 37.3862 21.1883 41.3268C22.1632 39.0069 23.138 36.5441 24.1128 33.9383C25.0877 31.3324 26.2983 28.4088 27.7449 25.1674Z" fill="#181818"/>
<path d="M30 58.6073C45.7994 58.6073 58.6073 45.7994 58.6073 30C58.6073 14.2006 45.7994 1.3927 30 1.3927C14.2006 1.3927 1.3927 14.2006 1.3927 30C1.3927 45.7994 14.2006 58.6073 30 58.6073Z" stroke="#181818" stroke-width="2.78533"/>
</svg>
